<svg width="108" height="26" viewBox="0 0 108 26" fill="none" xmlns="http://www.w3.org/2000/svg">
<path d="M14.676 0.0136719H0V25.2262H14.676V21.6513H4.51568V13.937H14.676V10.5503H4.51568V3.40043H14.676V0.0136719Z" fill="black"/>
<path d="M16.9338 25.2298V6.03315L21.0732 6.03394L21.4495 9.05109C28.5993 2.84283 33.6795 7.54572 33.8676 11.3065V25.255H29.352V11.3065C29.1638 7.73387 25.777 8.29615 21.4495 11.3066V25.2299L16.9338 25.2298Z" fill="black"/>
<path fill-rule="evenodd" clip-rule="evenodd" d="M38.007 7.02806L39.1359 10.0361C40.9547 8.71903 45.9094 6.46357 47.4146 10.0361V13.611C43.2752 13.172 35.7868 13.7992 35.9373 19.8201C36.1254 27.3462 44.4042 25.841 47.4146 22.8305V25.2275L51.9303 25.2275V10.0361C50.9895 7.0252 47.7909 2.88865 38.007 7.02806ZM47.4146 15.8715V20.3871C45.0313 22.3941 41.0927 25.0155 39.8885 20.1988C39.3241 15.4947 44.0278 15.3697 47.4146 15.8715Z" fill="black"/>
<path fill-rule="evenodd" clip-rule="evenodd" d="M54.1882 0.0136719V25.2263H58.7039V22.7803C62.0907 25.9789 71.3102 28.4249 72.0628 16.0068C72.0628 3.02417 63.5206 4.71755 58.7039 8.48062V0.0136719H54.1882ZM58.7038 12.2952V19.165C61.7187 23.2875 67.7352 24.1463 67.7352 15.9019C67.7352 9.3761 63.3857 7.07418 58.7038 12.2952Z" fill="black"/>
<path d="M74.5088 20.5224V0.0136719H79.0245V20.5224C79.0245 22.6297 81.8468 22.0276 83.5401 21.6513V24.8499C76.6161 26.8067 74.7597 22.7802 74.5088 20.5224Z" fill="black"/>
<path fill-rule="evenodd" clip-rule="evenodd" d="M92.2539 25.1947C90.5426 25.039 88.9084 24.311 87.5611 23.0998C86.2134 21.8883 85.2142 20.2484 84.6945 18.3881C84.1747 16.5277 84.1589 14.5343 84.6492 12.6637C85.1394 10.7931 86.1126 9.1331 87.441 7.8945C88.7691 6.65616 90.3917 5.89532 92.1004 5.70523C93.8089 5.51516 95.5302 5.90384 97.0448 6.82412C98.5598 7.74467 99.8004 9.1562 100.605 10.8812C101.409 12.6064 101.739 14.5644 101.552 16.5043H88.9966C88.9338 20.1015 90.6899 24.2854 98.7805 21.2749L99.7213 23.9091C99.7213 23.9091 96.899 25.6171 92.2539 25.1947ZM95.7417 10.2116C96.4827 11.1996 96.899 12.5396 96.899 13.9368H92.9477L88.9965 13.9368C88.9965 12.5396 89.4128 11.1995 90.1538 10.2116C90.8948 9.22356 91.8998 8.66851 92.9477 8.66851C93.9957 8.66851 95.0007 9.22356 95.7417 10.2116Z" fill="black"/>
<circle cx="105.366" cy="22.5912" r="2.63415" fill="#084EB6"/>
</svg>
